# Blender v2.79 (sub 0) OBJ File: 'storagecrate.blend'
# www.blender.org
mtllib storagecrate.mtl
o storagecrate
v 0.916468 1.862293 -0.977274
v 0.904656 1.946723 -0.904655
v 0.977275 1.862293 -0.916467
v 0.904656 -0.053277 -0.904655
v 0.904656 -0.053277 0.904656
v -0.904656 -0.053277 0.904655
v -0.904655 -0.053277 -0.904656
v -1.002662 0.954188 1.138006
v -0.881186 0.065537 1.000000
v -0.799622 0.065537 0.907439
v -0.909842 0.954188 1.032670
v 0.904655 1.946723 0.904656
v 0.756913 1.869357 -0.756912
v 0.756912 1.869357 0.756913
v -0.847994 0.065537 -1.000000
v 0.281857 0.954188 -1.138019
v 0.228079 0.954188 -1.032683
v -0.769503 0.065537 -0.907439
v 0.977872 0.031004 -0.915719
v 0.977274 0.030256 0.915570
v 1.111695 0.954188 1.042476
v 0.976231 1.863263 0.916541
v 0.916467 1.862293 0.977275
v 1.042664 0.954188 1.112485
v -1.042344 0.954188 1.111550
v -0.916540 1.863263 0.976231
v -0.977274 1.862293 0.916467
v -1.112352 0.954188 1.042519
v 1.138151 0.954188 1.002795
v 1.000000 0.065537 0.881186
v 0.907439 0.065537 0.799622
v 1.032815 0.954188 0.909974
v -0.916540 1.863263 -0.976231
v -0.904655 1.946723 -0.904656
v -0.904656 1.946723 0.904655
v -0.976231 1.863263 -0.916540
v 0.881185 1.827909 1.000001
v -0.847995 1.827909 1.000000
v -0.769503 1.827909 0.907439
v 0.799622 1.827909 0.907439
v 1.002939 0.954188 -1.138019
v 0.881186 0.065537 -1.000000
v 0.799622 0.065537 -0.907439
v 0.910119 0.954188 -1.032683
v 0.915719 0.031004 -0.977872
v 0.999999 1.827909 0.847995
v 1.138151 0.954188 -0.280700
v 1.032815 0.954188 -0.279485
v 0.907438 1.827909 0.769504
v 0.915719 0.031004 0.977873
v -0.915570 0.030256 0.977274
v 1.000000 0.065537 -0.847995
v 1.138151 0.954188 0.268113
v 1.032815 0.954188 0.240318
v 0.907439 0.065537 -0.769503
v -0.977873 0.031004 0.915719
v -0.977274 0.030256 -0.915570
v -0.915569 0.030256 -0.977274
v -1.137874 0.954188 -1.002807
v -1.000000 0.065537 -0.881186
v -0.907438 0.065537 -0.799623
v -1.032538 0.954188 -0.909987
v -1.111418 0.954188 -1.042488
v -1.042343 0.954188 -1.111563
v 1.000000 0.450350 -0.881186
v 0.847995 0.065537 1.000000
v 0.881186 0.450350 1.000000
v -1.000000 0.065537 0.847994
v -1.000000 0.450350 0.881186
v -0.881185 0.450350 -1.000000
v 0.881186 1.486293 -0.999999
v 0.847995 1.827909 -0.999999
v 0.999999 1.486293 0.881186
v -0.881186 1.486293 1.000000
v -1.000000 1.486293 -0.881186
v -1.000000 1.827909 -0.847995
v 1.042664 0.954188 -1.112497
v 1.138151 0.954188 -1.002807
v 1.112629 0.954188 -1.042532
v 1.002939 0.954188 1.138006
v -1.137874 0.954188 1.002794
v -1.002662 0.954188 -1.138019
v 1.000000 1.827909 -0.881185
v -0.881186 1.827909 -1.000000
v -1.000000 1.827909 0.881185
v -0.294477 0.954188 1.138006
v 0.253497 0.954188 1.138006
v -0.266506 0.954188 -1.138019
v -1.137874 0.954188 -0.272662
v -1.137874 0.954188 0.276009
v -0.907439 1.486293 -0.799622
v -1.032538 0.954188 -0.232068
v -0.799623 1.486293 0.907439
v -0.238446 0.954188 1.032670
v 0.769504 1.827909 -0.907438
v -0.269906 0.954188 -1.032683
v -0.909841 0.954188 -1.032683
v -0.799622 1.827909 -0.907439
v 0.907439 0.450350 -0.799622
v 1.032815 0.954188 -0.909986
v 0.799622 0.450350 0.907439
v 0.910118 0.954188 1.032671
v 0.261250 0.954188 1.032670
v -0.907439 0.450350 0.799622
v -1.032538 0.954188 0.909973
v -1.032538 0.954188 0.282541
v 0.907438 1.486293 0.799623
v -0.907439 1.827909 -0.769503
v -0.907439 1.827909 0.799622
v -0.907439 0.065537 0.769503
v 0.907439 1.827909 -0.799622
v 0.769503 0.065537 0.907439
v 0.799623 1.486293 -0.907438
v -0.799622 0.450350 -0.907439
v -0.756913 1.869357 -0.756913
v -0.756913 1.869357 0.756913
v -0.756913 0.065537 0.756913
v -0.756913 0.065537 -0.756913
v 0.756913 0.065537 -0.756912
v 0.756912 0.065537 0.756913
vt 0.159450 0.571205
vt 0.157531 0.580596
vt 0.152226 0.572613
vt 0.708885 0.202503
vt 0.556820 0.174035
vt 0.585393 0.021577
vt 0.737805 0.050503
vt 0.226879 0.724828
vt 0.242615 0.648773
vt 0.253173 0.648773
vt 0.238895 0.724828
vt 0.238600 0.453802
vt 0.310676 0.316748
vt 0.317424 0.334583
vt 0.257119 0.449254
vt 0.928593 0.637513
vt 0.948249 0.759530
vt 0.938503 0.756796
vt 0.920066 0.643443
vt 0.709349 0.212078
vt 0.552963 0.182848
vt 0.840505 0.497194
vt 0.839942 0.576597
vt 0.832650 0.576505
vt 0.832090 0.497196
vt 0.774445 0.684779
vt 0.773916 0.764165
vt 0.766623 0.764077
vt 0.766031 0.684758
vt 0.183904 0.714091
vt 0.199656 0.638036
vt 0.210214 0.638036
vt 0.195919 0.714091
vt 0.308946 0.618765
vt 0.305131 0.627427
vt 0.477927 0.588052
vt 0.358687 0.686848
vt 0.351900 0.680251
vt 0.472624 0.580068
vt 0.313946 0.623980
vt 0.183904 0.834994
vt 0.331838 0.839146
vt 0.324900 0.846876
vt 0.190659 0.843108
vt 0.812914 0.713124
vt 0.828666 0.637069
vt 0.839225 0.637069
vt 0.824930 0.713124
vt 0.717614 0.206471
vt 0.367528 0.574545
vt 0.488869 0.556123
vt 0.489350 0.565126
vt 0.373404 0.583110
vt 0.547245 0.174537
vt 0.576584 0.017697
vt 0.615458 0.652657
vt 0.623236 0.775084
vt 0.614131 0.773075
vt 0.606383 0.657710
vt 0.584869 0.012000
vt 0.741736 0.041710
vt 0.747425 0.050093
vt 0.625533 0.634862
vt 0.479802 0.578775
vt 0.629377 0.626082
vt 0.038324 0.679430
vt 0.031534 0.672835
vt 0.634349 0.631418
vt 0.716087 0.226492
vt 0.760652 0.162792
vt 0.770252 0.167008
vt 0.726843 0.231790
vt 0.141474 0.693229
vt 0.140901 0.772613
vt 0.133676 0.772612
vt 0.133114 0.693208
vt 0.787359 0.784652
vt 0.793824 0.782622
vt 0.785209 0.817639
vt 0.826052 0.418652
vt 0.832517 0.416621
vt 0.823902 0.451639
vt 0.158367 0.794142
vt 0.164831 0.792110
vt 0.156227 0.827129
vt 0.572382 0.682955
vt 0.578867 0.680884
vt 0.570110 0.715933
vt 0.028096 0.691151
vt 0.026576 0.720487
vt 0.020043 0.722516
vt 0.902945 0.791895
vt 0.901530 0.821236
vt 0.894959 0.823366
vt 0.781985 0.732715
vt 0.780492 0.762052
vt 0.148990 0.741167
vt 0.147479 0.770503
vt 0.643617 0.749440
vt 0.641613 0.745251
vt 0.428870 0.646813
vt 0.426861 0.642688
vt 0.024505 0.643094
vt 0.020467 0.643216
vt 0.789352 0.863360
vt 0.793390 0.863203
vt 0.682305 0.383455
vt 0.680301 0.379267
vt 0.899345 0.743842
vt 0.895266 0.743969
vt 0.828053 0.497360
vt 0.014614 0.758975
vt 0.012609 0.754786
vt 0.778525 0.684655
vt 0.160373 0.872844
vt 0.164411 0.872688
vt 0.145553 0.693105
vt 0.573955 0.761674
vt 0.578034 0.761519
vt 0.645887 0.973657
vt 0.789949 0.939776
vt 0.793696 0.942519
vt 0.641011 0.978549
vt 0.430989 0.873134
vt 0.574772 0.838086
vt 0.578575 0.840911
vt 0.426131 0.877949
vt 0.684940 0.608125
vt 0.828893 0.573774
vt 0.680080 0.613033
vt 0.016877 0.983109
vt 0.160946 0.949257
vt 0.164692 0.952000
vt 0.012000 0.988000
vt 0.066697 0.479625
vt 0.118042 0.433815
vt 0.164936 0.434468
vt 0.069621 0.508854
vt 0.531618 0.401880
vt 0.585202 0.356103
vt 0.632168 0.356757
vt 0.534523 0.431111
vt 0.531618 0.452299
vt 0.584033 0.406505
vt 0.630961 0.407158
vt 0.534532 0.481529
vt 0.012000 0.463188
vt 0.065194 0.417406
vt 0.112148 0.418058
vt 0.014908 0.492419
vt 0.012681 0.722529
vt 0.012000 0.643194
vt 0.716531 0.278598
vt 0.779164 0.257095
vt 0.173463 0.302100
vt 0.164369 0.255248
vt 0.221829 0.255664
vt 0.473014 0.324105
vt 0.562561 0.249261
vt 0.617328 0.249690
vt 0.607304 0.325156
vt 0.291788 0.211076
vt 0.300884 0.255585
vt 0.246924 0.255161
vt 0.156302 0.179101
vt 0.070371 0.255289
vt 0.012000 0.254867
vt 0.022012 0.178130
vt 0.487127 0.179293
vt 0.496237 0.223799
vt 0.440705 0.223365
vt 0.838750 0.253449
vt 0.847847 0.297952
vt 0.794149 0.297532
vt 0.325843 0.302486
vt 0.316738 0.255631
vt 0.374049 0.256047
vt 0.476921 0.600606
vt 0.480669 0.610477
vt 0.281813 0.560354
vt 0.341210 0.608431
vt 0.336399 0.617830
vt 0.276338 0.571050
vt 0.047162 0.567386
vt 0.167486 0.548634
vt 0.168301 0.557617
vt 0.053044 0.575947
vt 0.891214 0.651606
vt 0.887062 0.799540
vt 0.879331 0.792603
vt 0.883099 0.658362
vt 0.899833 0.223189
vt 0.894221 0.346077
vt 0.885341 0.342267
vt 0.890263 0.227244
vt 0.602243 0.568228
vt 0.661641 0.616309
vt 0.656832 0.625709
vt 0.596771 0.578925
vt 0.301304 0.513518
vt 0.360669 0.561638
vt 0.355854 0.571035
vt 0.295824 0.524212
vt 0.867772 0.645376
vt 0.863620 0.793310
vt 0.855890 0.786373
vt 0.859658 0.652131
vt 0.054976 0.544519
vt 0.175931 0.525681
vt 0.176957 0.534655
vt 0.060877 0.553066
vt 0.289682 0.536973
vt 0.349371 0.584685
vt 0.344618 0.594113
vt 0.284273 0.547702
vt 0.292321 0.635476
vt 0.313582 0.758083
vt 0.303753 0.755315
vt 0.283883 0.641533
vt 0.785566 0.599498
vt 0.790277 0.608947
vt 0.148741 0.599604
vt 0.153594 0.608982
vt 0.066697 0.521199
vt 0.186089 0.502127
vt 0.187217 0.511096
vt 0.072584 0.529756
vt 0.767582 0.156802
vt 0.331838 0.866741
vt 0.183904 0.862589
vt 0.190841 0.854859
vt 0.325082 0.858627
vt 0.255745 0.507870
vt 0.250929 0.517267
vt 0.899026 0.666173
vt 0.895357 0.663327
vt 0.199656 0.759632
vt 0.210214 0.759632
vt 0.840013 0.416545
vt 0.556680 0.562613
vt 0.551871 0.572013
vt 0.020535 0.562649
vt 0.013011 0.562596
vt 0.024192 0.565424
vt 0.828666 0.758664
vt 0.839225 0.758664
vt 0.236258 0.554716
vt 0.231447 0.564115
vt 0.681788 0.280472
vt 0.684709 0.313399
vt 0.610469 0.844393
vt 0.601507 0.838809
vt 0.326740 0.178893
vt 0.461031 0.179868
vt 0.290845 0.331053
vt 0.156555 0.329997
vt 0.145104 0.615439
vt 0.141430 0.612599
vt 0.133960 0.612561
vt 0.707428 0.273477
vt 0.244094 0.531611
vt 0.239341 0.541039
vt 0.778115 0.606989
vt 0.774443 0.604147
vt 0.766946 0.604175
vt 0.242615 0.770369
vt 0.253173 0.770369
vt 0.681793 0.330890
vt 0.684703 0.363818
vt 0.942256 0.828874
vt 0.932768 0.824240
vt 0.021118 0.301719
vt 0.608243 0.205184
vt 0.216881 0.358215
vt 0.219781 0.391145
vt 0.486190 0.299265
vt 0.351900 0.298216
vt 0.174358 0.178511
vt 0.308649 0.179484
vt 0.308072 0.826672
vt 0.298526 0.822159
vt 0.162164 0.341779
vt 0.165082 0.374707
vt 0.837811 0.373416
vt 0.703521 0.372365
vt 0.874105 0.413326
vt 0.865786 0.406820
vt 0.400682 0.167353
vt 0.271122 0.167028
vt 0.271508 0.012648
vt 0.401069 0.012973
vt 0.468753 0.426063
vt 0.365963 0.541877
vt 0.363682 0.522945
vt 0.449684 0.426045
vt 0.366178 0.310059
vt 0.363861 0.328986
vt 0.794438 0.009480
vt 0.914137 0.059061
vt 0.864556 0.178760
vt 0.744857 0.129179
vt 0.530243 0.167677
vt 0.530630 0.013297
vt 0.141561 0.166704
vt 0.141947 0.012324
vt 0.012000 0.166380
vt 0.012386 0.012000
vn 0.5773 0.5774 -0.5774
vn 0.0000 -1.0000 -0.0000
vn 0.7503 0.0000 0.6611
vn 0.7503 -0.0001 0.6611
vn -0.4639 0.8859 -0.0000
vn 0.6333 -0.7698 -0.0791
vn 0.7548 -0.6559 -0.0000
vn 0.6974 0.1993 0.6884
vn -0.6885 0.1991 0.6974
vn 0.6611 0.0000 -0.7503
vn 0.6611 -0.0001 -0.7503
vn -0.0000 0.6515 -0.7586
vn -0.7586 0.6515 -0.0000
vn -0.5774 0.5774 -0.5773
vn -0.7503 -0.0000 -0.6611
vn -0.7503 0.0001 -0.6611
vn 0.5774 -0.5773 -0.5774
vn 0.2311 0.7723 -0.5918
vn 0.0000 -0.6560 0.7548
vn 0.1592 -0.7670 0.6215
vn -0.7548 -0.6560 0.0000
vn -0.5773 -0.5773 -0.5774
vn -0.0000 0.6515 0.7586
vn 0.7586 0.6515 0.0000
vn 0.5773 0.5774 0.5773
vn -0.5774 0.5774 0.5773
vn -0.6611 -0.0000 0.7503
vn -0.6611 0.0001 0.7503
vn -0.5774 -0.5774 0.5773
vn 0.0000 -0.6559 -0.7548
vn 0.5774 -0.5773 0.5774
vn -0.6930 0.1991 -0.6930
vn 0.9540 -0.0258 -0.2986
vn 0.2986 -0.0258 0.9540
vn -0.9540 -0.0258 0.2986
vn -0.3062 -0.0264 -0.9516
vn 0.3016 0.0293 -0.9530
vn 0.9491 0.0304 0.3134
vn -0.3134 0.0305 0.9491
vn -0.9491 0.0305 -0.3134
vn 0.8413 -0.5405 0.0000
vn -0.0000 -0.5405 -0.8413
vn -0.1610 0.1571 -0.9744
vn 0.9658 -0.1475 0.2134
vn -0.0000 -0.5405 0.8413
vn 0.9759 0.1597 -0.1490
vn -0.2128 -0.1474 0.9659
vn -0.8413 -0.5405 -0.0000
vn 0.1486 0.1596 0.9759
vn -0.9660 -0.1474 -0.2124
vn -0.9760 0.1595 0.1480
vn 0.2035 -0.1492 -0.9676
vn 0.8321 0.5547 0.0001
vn -0.0001 0.5547 -0.8320
vn -0.0001 0.5547 0.8321
vn -0.8321 0.5547 -0.0001
vn -0.0671 0.1141 0.9912
vn 0.9914 0.1128 0.0662
vn 0.0666 0.1134 -0.9913
vn -0.9914 0.1128 -0.0662
vn 0.6929 0.1995 -0.6929
vn -0.9735 0.2289 0.0000
vn 0.0000 0.2291 0.9734
vn 0.0000 0.1419 -0.9899
vn 0.9704 -0.2415 0.0000
vn 0.0000 -0.1396 -0.9902
vn -0.0000 -0.2412 0.9705
vn -0.9705 -0.2410 -0.0000
vn 0.9733 0.2293 0.0000
vn -0.0000 1.0000 0.0000
vn 0.7503 -0.0000 -0.6611
vn 0.7503 0.0001 -0.6611
vn 0.7503 -0.0001 -0.6611
vn -0.5925 0.7673 -0.2452
vn -0.1204 -0.7684 -0.6286
vn 0.6611 -0.0000 0.7503
vn 0.6611 0.0001 0.7503
vn -0.7503 0.0000 0.6611
vn -0.7503 -0.0001 0.6611
vn -0.2523 0.7692 0.5872
vn -0.6611 0.0000 -0.7503
vn -0.6611 -0.0001 -0.7503
vn -0.6302 -0.7731 0.0715
vn 0.5930 0.7626 0.2585
vn -0.7503 0.0002 0.6611
vn 0.4649 0.1970 0.8632
vn 0.8573 -0.1943 0.4767
vn 0.6611 0.0002 -0.7503
vn 0.6973 -0.1963 0.6893
vn 0.6611 -0.0002 0.7503
vn 0.6933 -0.1964 -0.6933
vn 0.8632 0.1971 -0.4649
vn 0.4644 -0.1938 -0.8642
vn -0.7503 -0.0002 -0.6611
vn 0.7503 -0.0002 -0.6611
vn 0.9915 -0.1084 -0.0717
vn -0.3280 -0.7350 0.5935
vn 0.9902 -0.1397 -0.0000
vn -0.2561 0.7480 -0.6123
vn 0.9899 0.1420 0.0000
vn -0.4793 0.1976 -0.8551
vn -0.8573 -0.1940 -0.4768
vn -0.6934 -0.1959 -0.6934
vn -0.6611 -0.0002 0.7503
vn -0.6611 0.0002 -0.7503
vn -0.8632 0.1969 0.4650
vn -0.4768 -0.1941 0.8573
vn -0.6894 -0.1961 0.6974
vn 0.7503 0.0002 0.6611
vn -0.0711 -0.1075 -0.9917
vn 0.5699 -0.7234 0.3897
vn 0.0000 0.2291 -0.9734
vn 0.0000 -0.2412 -0.9705
vn -0.6096 0.7552 0.2408
vn 0.0707 -0.1067 0.9918
vn -0.0000 0.1419 0.9899
vn 0.6071 0.7617 -0.2264
vn 0.0000 -0.1395 0.9902
vn -0.5728 -0.7164 -0.3983
vn -0.9916 -0.1079 0.0714
vn 0.2345 0.7500 0.6185
vn -0.9899 0.1417 0.0000
vn 0.3586 -0.7307 -0.5810
vn -0.9902 -0.1394 -0.0000
vn 1.0000 0.0000 0.0000
vn 0.4639 0.8859 0.0000
vn -0.0000 0.8859 0.4639
vn 0.0000 0.8859 -0.4639
vn -0.0000 -0.0000 1.0000
vn 0.0000 0.0000 -1.0000
vn -1.0000 0.0000 -0.0000
usemtl Material.001
s 1
f 1/1/1 2/2/1 3/3/1
f 4/4/2 5/5/2 6/6/2 7/7/2
f 8/8/3 9/9/4 10/10/4 11/11/3
f 12/12/5 2/13/5 13/14/5 14/15/5
f 15/16/6 16/17/6 17/18/6 18/19/6
f 19/20/7 20/21/7 5/5/7 4/4/7
f 21/22/8 22/23/8 23/24/8 24/25/8
f 25/26/9 26/27/9 27/28/9 28/29/9
f 29/30/10 30/31/11 31/32/11 32/33/10
f 1/1/12 33/34/12 34/35/12 2/2/12
f 35/36/13 34/37/13 36/38/13 27/39/13
f 36/40/14 34/35/14 33/34/14
f 37/41/2 38/42/2 39/43/2 40/44/2
f 41/45/15 42/46/16 43/47/16 44/48/15
f 19/20/17 4/4/17 45/49/17
f 46/50/18 47/51/18 48/52/18 49/53/18
f 50/54/19 51/55/19 6/6/19 5/5/19
f 52/56/20 53/57/20 54/58/20 55/59/20
f 56/60/21 57/61/21 7/7/21 6/6/21
f 58/62/22 7/7/22 57/61/22
f 12/63/23 35/36/23 26/64/23 23/65/23
f 2/2/24 12/66/24 22/67/24 3/3/24
f 23/65/25 22/68/25 12/63/25
f 27/39/26 26/64/26 35/36/26
f 59/69/27 60/70/28 61/71/28 62/72/27
f 51/55/29 56/60/29 6/6/29
f 4/4/30 7/7/30 58/62/30 45/49/30
f 20/21/31 50/54/31 5/5/31
f 63/73/32 36/74/32 33/75/32 64/76/32
f 52/77/33 19/78/33 65/79/33
f 66/80/34 50/81/34 67/82/34
f 68/83/35 56/84/35 69/85/35
f 15/86/36 58/87/36 70/88/36
f 71/89/37 72/90/37 1/91/37
f 73/92/38 46/93/38 22/94/38
f 74/95/39 38/96/39 26/27/39
f 75/97/40 76/98/40 36/74/40
f 52/77/41 30/99/41 20/100/41 19/78/41
f 15/86/42 42/101/42 45/102/42 58/87/42
f 41/103/43 71/89/43 1/91/43 77/104/43
f 78/105/44 65/79/44 19/78/44 79/106/44
f 66/80/45 9/107/45 51/108/45 50/81/45
f 29/109/46 73/92/46 22/94/46 21/110/46
f 80/111/47 67/82/47 50/81/47 24/25/47
f 68/83/48 60/112/48 57/113/48 56/84/48
f 8/114/49 74/95/49 26/27/49 25/26/49
f 81/115/50 69/85/50 56/84/50 28/116/50
f 59/117/51 75/97/51 36/74/51 63/73/51
f 82/118/52 70/88/52 58/87/52 64/119/52
f 46/120/53 83/121/53 3/122/53 22/123/53
f 72/124/54 84/125/54 33/126/54 1/127/54
f 38/128/55 37/129/55 23/24/55 26/130/55
f 76/131/56 85/132/56 27/133/56 36/134/56
f 74/135/57 86/136/57 87/137/57 38/138/57
f 73/139/58 53/140/58 47/141/58 46/142/58
f 71/143/59 16/144/59 88/145/59 72/146/59
f 75/147/60 89/148/60 90/149/60 76/150/60
f 77/104/61 1/91/61 3/151/61 79/152/61
f 91/153/62 62/72/62 92/154/62
f 93/155/63 11/156/63 94/157/63
f 95/158/64 96/159/64 97/160/64 98/161/64
f 99/162/65 100/163/65 48/164/65
f 18/165/66 17/166/66 44/167/66 43/168/66
f 101/169/67 102/170/67 103/171/67
f 104/172/68 105/173/68 106/174/68
f 107/175/69 32/176/69 54/177/69
f 30/178/70 52/56/70 55/59/70 31/179/70
f 82/180/71 84/181/72 98/182/72 97/183/73
f 72/184/74 88/185/74 96/186/74 95/187/74
f 85/188/2 76/189/2 108/190/2 109/191/2
f 68/192/75 89/193/75 92/194/75 110/195/75
f 78/196/76 83/197/77 111/198/77 100/199/76
f 80/200/78 37/201/79 40/202/79 102/203/78
f 83/204/2 46/205/2 49/206/2 111/207/2
f 76/208/80 90/209/80 106/210/80 108/211/80
f 81/212/81 85/213/82 109/214/82 105/215/81
f 66/216/83 86/217/83 94/218/83 112/219/83
f 42/220/70 15/16/70 18/19/70 43/221/70
f 9/222/70 66/216/70 112/219/70 10/223/70
f 38/224/84 87/225/84 103/226/84 39/227/84
f 60/228/70 68/192/70 110/195/70 61/71/70
f 84/229/2 72/230/2 95/231/2 98/232/2
f 67/233/85 80/200/78 102/203/78 101/234/85
f 37/129/86 80/111/86 24/25/86 23/24/86
f 30/235/87 29/109/87 21/110/87 20/236/87
f 73/237/88 29/30/10 32/33/10 107/238/88
f 20/239/89 21/22/89 24/25/89 50/81/89
f 65/240/90 78/196/76 100/199/76 99/241/90
f 45/242/91 77/104/91 79/152/91 19/243/91
f 83/121/92 78/105/92 79/106/92 3/122/92
f 42/244/93 41/103/93 77/104/93 45/242/93
f 71/245/94 41/45/15 44/48/15 113/246/94
f 70/247/95 82/180/71 97/183/73 114/248/95
f 47/141/96 53/140/96 52/249/96 65/250/96
f 54/58/97 53/57/97 73/251/97 107/252/97
f 54/177/98 32/176/98 31/253/98 55/254/98
f 48/52/99 47/51/99 65/240/99 99/241/99
f 48/164/100 100/163/100 111/255/100 49/256/100
f 84/125/101 82/118/101 64/119/101 33/126/101
f 60/257/102 59/117/102 63/73/102 57/258/102
f 57/258/103 63/73/103 64/76/103 58/259/103
f 75/260/104 59/69/27 62/72/27 91/153/104
f 69/261/105 81/212/81 105/215/81 104/262/105
f 85/132/106 81/115/106 28/116/106 27/133/106
f 9/263/107 8/114/107 25/26/107 51/264/107
f 51/264/108 25/26/108 28/29/108 56/265/108
f 74/266/109 8/8/3 11/11/3 93/267/109
f 88/145/110 16/144/110 15/268/110 70/269/110
f 17/18/111 16/17/111 71/270/111 113/271/111
f 44/167/112 17/166/112 113/272/112
f 97/160/113 96/159/113 114/273/113
f 96/186/114 88/185/114 70/247/114 114/248/114
f 87/137/115 86/136/115 66/274/115 67/275/115
f 103/171/116 102/170/116 40/276/116 39/277/116
f 103/226/117 87/225/117 67/233/117 101/234/117
f 94/157/118 11/156/118 10/278/118 112/279/118
f 94/218/119 86/217/119 74/280/119 93/281/119
f 90/149/120 89/148/120 68/282/120 69/283/120
f 106/210/121 90/209/121 69/261/121 104/262/121
f 106/174/122 105/173/122 109/284/122 108/285/122
f 92/194/123 89/193/123 75/286/123 91/287/123
f 92/154/124 62/72/124 61/71/124 110/195/124
f 115/288/125 116/289/125 117/290/125 118/291/125
f 34/292/126 35/293/126 116/294/126 115/295/126
f 2/296/127 34/292/127 115/295/127 13/297/127
f 35/293/128 12/12/128 14/15/128 116/294/128
f 119/298/70 118/299/70 117/300/70 120/301/70
f 13/302/129 115/288/129 118/291/129 119/303/129
f 116/289/130 14/304/130 120/305/130 117/290/130
f 14/304/131 13/306/131 119/307/131 120/305/131
