# This file uses centimeters as units for non-parametric coordinates.

mtllib Tree_Stump.mtl
g default
v 1.277226 -6.737079 1.397367
v 0.732659 -6.737079 1.466184
v 0.174304 -6.737079 1.447377
v -0.348458 -6.737079 1.119062
v -0.068213 -5.933447 1.487064
v -0.493084 -6.098116 1.157358
v -0.790158 -6.176486 0.739401
v -0.713855 -6.737079 0.661125
v -0.929011 -6.203948 0.211237
v -0.832007 -6.737079 0.132041
v -0.897943 -6.191795 -0.366034
v -0.774745 -6.737079 -0.411421
v -0.573093 -6.737079 -0.880782
v 1.867789 -6.737079 -0.955790
v 2.139122 -6.737079 -0.514746
v 2.230412 -6.737079 0.033182
v 2.107619 -6.737079 0.609782
v 1.768460 -6.737079 1.099261
v 1.991181 -5.426457 0.740238
v 1.607647 -5.502886 1.250159
v 1.041916 -5.602050 1.549810
v 0.451529 -5.737259 1.612031
v 0.323965 -4.621307 1.558249
v -0.186039 -4.842128 1.457840
v -0.638409 -5.024078 1.137418
v -0.956069 -5.132070 0.729100
v -1.093989 -5.181734 0.228907
v -1.096776 -5.187068 -0.321400
v -0.902921 -5.124498 -0.827005
v -0.681406 -6.131694 -0.869092
v -0.410888 -6.071557 -1.238780
v -0.280405 -6.737079 -1.239892
v 0.004646 -5.915474 -1.503711
v 0.279952 -6.737079 -1.475680
v 0.679121 -6.737079 -1.538520
v 0.448874 -5.789387 -1.612031
v 0.924586 -5.662745 -1.574744
v 1.085022 -6.737079 -1.434651
v 1.420926 -5.575281 -1.373814
v 1.502514 -6.737079 -1.270261
v 1.814137 -5.477468 -1.022308
v 2.096390 -5.407923 -0.515984
v 2.170607 -5.388014 0.104513
v 1.871847 -4.114611 0.112041
v 1.712505 -4.169542 0.691376
v 1.388212 -4.309024 1.171672
v 0.871698 -4.437463 1.473404
v 0.648416 -3.377079 1.353304
v 0.137435 -3.377081 1.448895
v -0.370779 -3.377083 1.358350
v -0.801284 -3.377084 1.071678
v -1.125708 -3.377085 0.683437
v -1.270954 -3.377086 0.194860
v -1.280614 -3.377086 -0.335993
v -1.101615 -3.377085 -0.834627
v -0.787221 -3.377084 -1.238791
v -0.578846 -5.014556 -1.237628
v -0.138662 -4.865787 -1.507803
v 0.328970 -4.708306 -1.610917
v 0.827808 -4.535733 -1.548236
v 1.277702 -4.366833 -1.292727
v 1.614925 -4.225389 -0.934052
v 1.824448 -4.144349 -0.446707
v 1.546459 -3.377076 -0.436135
v 1.581652 -3.377076 0.103339
v 1.420088 -3.377076 0.631074
v 1.100952 -3.377077 1.067634
v -0.357059 -3.377083 -1.504976
v 0.122299 -3.377081 -1.603396
v 0.608979 -3.377079 -1.529582
v 1.038491 -3.377078 -1.275562
v 1.371331 -3.377077 -0.909172
vt 0.523606 0.212129
vt 0.566591 0.221537
vt 0.542387 0.270997
vt 0.508893 0.252932
vt 0.475666 0.239186
vt 0.482991 0.202266
vt 0.439588 0.225989
vt 0.446013 0.190556
vt 0.400797 0.212980
vt 0.409312 0.176973
vt 0.680558 0.246181
vt 0.718722 0.255569
vt 0.688758 0.339186
vt 0.650079 0.322156
vt 0.611211 0.306469
vt 0.642471 0.237180
vt 0.610947 0.396552
vt 0.575907 0.377957
vt 0.574938 0.290227
vt 0.543315 0.359037
vt 0.605241 0.228984
vt 0.512759 0.338776
vt 0.479741 0.320329
vt 0.448493 0.306460
vt 0.417030 0.294045
vt 0.383367 0.281844
vt 0.349461 0.271425
vt 0.363671 0.201318
vt 0.375625 0.162538
vt 0.332854 0.191675
vt 0.315851 0.262726
vt 0.345387 0.148557
vt 0.298102 0.185420
vt 0.306233 0.128827
vt 0.280081 0.116042
vt 0.266894 0.178768
vt 0.235143 0.171921
vt 0.252908 0.103155
vt 0.201373 0.162259
vt 0.223322 0.090740
vt 0.167522 0.155625
vt 0.191534 0.078038
vt 0.181000 0.240668
vt 0.148124 0.238133
vt 0.130823 0.148820
vt 0.113779 0.234873
vt 0.156900 0.066425
vt 0.091330 0.141993
vt 0.077532 0.232435
vt 0.119462 0.056571
vt 0.048881 0.134813
vt 0.038447 0.230158
vt 0.080220 0.048413
vt 0.641809 0.420208
vt 0.580657 0.495154
vt 0.554570 0.474502
vt 0.526977 0.454859
vt 0.499073 0.436610
vt 0.470759 0.419661
vt 0.442097 0.404102
vt 0.413948 0.390366
vt 0.385522 0.378122
vt 0.355522 0.366879
vt 0.324946 0.357011
vt 0.294443 0.349058
vt 0.281677 0.255549
vt 0.263331 0.342532
vt 0.249742 0.249575
vt 0.215840 0.244483
vt 0.201254 0.333299
vt 0.169739 0.330239
vt 0.138810 0.328131
vt 0.107893 0.326891
vt 0.075147 0.326630
vt 0.041674 0.328213
vt 0.232523 0.337390
vt 0.037234 0.902110
vt 0.052847 0.995893
vt 0.037669 0.992776
vt 0.023602 0.911188
vt 0.083836 0.911316
vt 0.093941 0.925139
vt 0.099057 0.941850
vt 0.097943 0.958932
vt 0.092397 0.973910
vt 0.081858 0.985512
vt 0.069507 0.902270
vt 0.068258 0.993555
vt 0.053327 0.899243
vt 0.024048 0.984347
vt 0.013330 0.923481
vt 0.014093 0.971550
vt 0.008425 0.955761
vt 0.008731 0.938952
vn -0.663819 -0.197349 0.721386
vn -0.331576 -0.165136 0.928864
vn -0.358476 -0.127581 0.924780
vn -0.660447 -0.199728 0.723822
vn -0.663819 -0.197349 0.721386
vn -0.660447 -0.199728 0.723822
vn -0.864072 -0.245152 0.439637
vn -0.881760 -0.197169 0.428513
vn -0.881760 -0.197169 0.428513
vn -0.864072 -0.245152 0.439637
vn -0.957806 -0.268845 0.101635
vn -0.978476 -0.190329 0.079746
vn -0.978476 -0.190329 0.079746
vn -0.957806 -0.268845 0.101635
vn -0.936453 -0.266886 -0.227659
vn -0.953668 -0.178709 -0.242034
vn 0.666994 -0.002749 0.745058
vn 0.905594 0.035161 0.422686
vn 0.878885 0.187731 0.438540
vn 0.641979 0.131221 0.755410
vn 0.666994 -0.002749 0.745058
vn 0.641979 0.131221 0.755410
vn 0.298788 0.041065 0.953436
vn 0.316555 -0.069254 0.946043
vn 0.298788 0.041065 0.953436
vn 0.641979 0.131221 0.755410
vn 0.581712 0.330079 0.743410
vn 0.267928 0.216314 0.938841
vn -0.020768 -0.044375 0.998799
vn 0.298788 0.041065 0.953436
vn 0.267928 0.216314 0.938841
vn -0.057098 0.092044 0.994117
vn 0.298788 0.041065 0.953436
vn -0.020768 -0.044375 0.998799
vn 0.009734 -0.120679 0.992644
vn 0.316555 -0.069254 0.946043
vn -0.358476 -0.127581 0.924780
vn -0.020768 -0.044375 0.998799
vn -0.057098 0.092044 0.994117
vn -0.388302 -0.038118 0.920743
vn -0.020768 -0.044375 0.998799
vn -0.358476 -0.127581 0.924780
vn -0.331576 -0.165136 0.928864
vn 0.009734 -0.120679 0.992644
vn -0.358476 -0.127581 0.924780
vn -0.388302 -0.038118 0.920743
vn -0.658003 -0.153027 0.737303
vn -0.660447 -0.199728 0.723822
vn -0.660447 -0.199728 0.723822
vn -0.658003 -0.153027 0.737303
vn -0.851504 -0.243631 0.464310
vn -0.864072 -0.245152 0.439637
vn -0.864072 -0.245152 0.439637
vn -0.851504 -0.243631 0.464310
vn -0.944446 -0.297951 0.138736
vn -0.957806 -0.268845 0.101635
vn -0.957806 -0.268845 0.101635
vn -0.944446 -0.297951 0.138736
vn -0.931523 -0.307220 -0.194632
vn -0.936453 -0.266886 -0.227659
vn -0.936453 -0.266886 -0.227659
vn -0.931523 -0.307220 -0.194632
vn -0.818469 -0.268075 -0.508178
vn -0.827979 -0.230670 -0.511119
vn -0.827979 -0.230670 -0.511119
vn -0.846952 -0.152125 -0.509440
vn -0.953668 -0.178709 -0.242034
vn -0.936453 -0.266886 -0.227659
vn -0.620583 -0.182247 -0.762668
vn -0.827979 -0.230670 -0.511119
vn -0.818469 -0.268075 -0.508178
vn -0.624398 -0.189446 -0.757784
vn -0.827979 -0.230670 -0.511119
vn -0.620583 -0.182247 -0.762668
vn -0.621817 -0.140888 -0.770386
vn -0.846952 -0.152125 -0.509440
vn -0.621817 -0.140888 -0.770386
vn -0.620583 -0.182247 -0.762668
vn -0.329278 -0.120136 -0.936559
vn -0.311501 -0.122613 -0.942302
vn -0.007351 -0.091227 -0.995803
vn -0.311501 -0.122613 -0.942302
vn -0.329278 -0.120136 -0.936559
vn -0.032949 -0.052785 -0.998062
vn -0.007351 -0.091227 -0.995803
vn -0.032949 -0.052785 -0.998062
vn 0.260826 0.014870 -0.965271
vn 0.273192 -0.066188 -0.959680
vn 0.273192 -0.066188 -0.959680
vn 0.260826 0.014870 -0.965271
vn 0.527067 0.081872 -0.845871
vn 0.525713 -0.038514 -0.849790
vn 0.525713 -0.038514 -0.849790
vn 0.527067 0.081872 -0.845871
vn 0.765057 0.145372 -0.627340
vn 0.771642 0.001568 -0.636055
vn 0.765057 0.145372 -0.627340
vn 0.527067 0.081872 -0.845871
vn 0.520458 0.257584 -0.814109
vn 0.734490 0.348593 -0.582244
vn 0.930105 0.191318 -0.313531
vn 0.765057 0.145372 -0.627340
vn 0.734490 0.348593 -0.582244
vn 0.871406 0.411562 -0.266961
vn 0.765057 0.145372 -0.627340
vn 0.930105 0.191318 -0.313531
vn 0.943703 0.030803 -0.329356
vn 0.771642 0.001568 -0.636055
vn 0.975806 0.207405 0.069182
vn 0.930105 0.191318 -0.313531
vn 0.871406 0.411562 -0.266961
vn 0.897402 0.431425 0.092429
vn 0.930105 0.191318 -0.313531
vn 0.975806 0.207405 0.069182
vn 0.997652 0.044493 0.052059
vn 0.943703 0.030803 -0.329356
vn 0.878885 0.187731 0.438540
vn 0.975806 0.207405 0.069182
vn 0.897402 0.431425 0.092429
vn 0.799600 0.402700 0.445503
vn 0.975806 0.207405 0.069182
vn 0.878885 0.187731 0.438540
vn 0.905594 0.035161 0.422686
vn 0.997652 0.044493 0.052059
vn 0.878885 0.187731 0.438540
vn 0.799600 0.402700 0.445503
vn 0.581712 0.330079 0.743410
vn 0.641979 0.131221 0.755410
vn 0.581712 0.330079 0.743410
vn 0.799600 0.402700 0.445503
vn 0.760748 0.464976 0.452836
vn 0.558056 0.393611 0.730510
vn 0.267928 0.216314 0.938841
vn 0.581712 0.330079 0.743410
vn 0.558056 0.393611 0.730510
vn 0.269002 0.281646 0.921039
vn -0.057098 0.092044 0.994117
vn 0.267928 0.216314 0.938841
vn 0.269002 0.281646 0.921039
vn -0.047623 0.153305 0.987031
vn -0.057098 0.092044 0.994117
vn -0.047623 0.153305 0.987031
vn -0.372076 0.018265 0.928023
vn -0.388302 -0.038118 0.920743
vn -0.388302 -0.038118 0.920743
vn -0.372076 0.018265 0.928023
vn -0.644086 -0.100822 0.758280
vn -0.658003 -0.153027 0.737303
vn -0.658003 -0.153027 0.737303
vn -0.644086 -0.100822 0.758280
vn -0.847872 -0.192425 0.494050
vn -0.851504 -0.243631 0.464310
vn -0.851504 -0.243631 0.464310
vn -0.847872 -0.192425 0.494050
vn -0.953433 -0.251082 0.167103
vn -0.944446 -0.297951 0.138736
vn -0.944446 -0.297951 0.138736
vn -0.953433 -0.251082 0.167103
vn -0.949417 -0.263898 -0.170193
vn -0.931523 -0.307220 -0.194632
vn -0.931523 -0.307220 -0.194632
vn -0.949417 -0.263898 -0.170193
vn -0.833153 -0.230974 -0.502501
vn -0.818469 -0.268075 -0.508178
vn -0.818469 -0.268075 -0.508178
vn -0.833153 -0.230974 -0.502501
vn -0.627212 -0.158113 -0.762631
vn -0.624398 -0.189446 -0.757784
vn -0.352662 -0.083886 -0.931983
vn -0.624398 -0.189446 -0.757784
vn -0.627212 -0.158113 -0.762631
vn -0.348636 -0.050843 -0.935878
vn -0.620583 -0.182247 -0.762668
vn -0.624398 -0.189446 -0.757784
vn -0.352662 -0.083886 -0.931983
vn -0.329278 -0.120136 -0.936559
vn -0.329278 -0.120136 -0.936559
vn -0.352662 -0.083886 -0.931983
vn -0.059711 0.027973 -0.997824
vn -0.032949 -0.052785 -0.998062
vn -0.032949 -0.052785 -0.998062
vn -0.059711 0.027973 -0.997824
vn 0.250762 0.148657 -0.956567
vn 0.260826 0.014870 -0.965271
vn 0.260826 0.014870 -0.965271
vn 0.250762 0.148657 -0.956567
vn 0.520458 0.257584 -0.814109
vn 0.527067 0.081872 -0.845871
vn 0.520458 0.257584 -0.814109
vn 0.250762 0.148657 -0.956567
vn 0.268601 0.200698 -0.942111
vn 0.533445 0.316667 -0.784320
vn 0.734490 0.348593 -0.582244
vn 0.520458 0.257584 -0.814109
vn 0.533445 0.316667 -0.784320
vn 0.732998 0.412870 -0.540604
vn 0.871406 0.411562 -0.266961
vn 0.734490 0.348593 -0.582244
vn 0.732998 0.412870 -0.540604
vn 0.851038 0.474294 -0.225342
vn 0.897402 0.431425 0.092429
vn 0.871406 0.411562 -0.266961
vn 0.851038 0.474294 -0.225342
vn 0.862605 0.493209 0.112509
vn 0.897402 0.431425 0.092429
vn 0.862605 0.493209 0.112509
vn 0.760748 0.464976 0.452836
vn 0.799600 0.402700 0.445503
vn -0.352662 -0.083886 -0.931983
vn -0.348636 -0.050843 -0.935878
vn -0.047110 0.070031 -0.996432
vn -0.059711 0.027973 -0.997824
vn -0.059711 0.027973 -0.997824
vn -0.047110 0.070031 -0.996432
vn 0.268601 0.200698 -0.942111
vn 0.250762 0.148657 -0.956567
vn -0.000004 1.000000 -0.000000
vn -0.000004 1.000000 -0.000000
vn -0.000003 1.000000 -0.000000
vn -0.000003 1.000000 -0.000000
vn -0.000004 1.000000 -0.000000
vn -0.000003 1.000000 0.000000
vn -0.000003 1.000000 0.000000
vn -0.000003 1.000000 0.000000
vn -0.000004 1.000000 -0.000000
vn -0.000003 1.000000 -0.000000
vn -0.000003 1.000000 -0.000000
vn -0.000004 1.000000 -0.000000
vn -0.000004 1.000000 -0.000000
vn -0.000003 1.000000 -0.000000
vn -0.000003 1.000000 -0.000000
vn -0.000004 1.000000 -0.000000
vn -0.000004 1.000000 -0.000000
vn -0.000004 1.000000 -0.000000
s off
g Tree_01_Clean:Tree_01_Clean
usemtl lambert2SG
f 4/1/1 3/2/2 5/3/3 6/4/4
f 4/1/5 6/4/6 7/5/7 8/6/8
f 8/6/9 7/5/10 9/7/11 10/8/12
f 10/8/13 9/7/14 11/9/15 12/10/16
f 18/11/17 17/12/18 19/13/19 20/14/20
f 18/11/21 20/14/22 21/15/23 1/16/24
f 21/15/25 20/14/26 46/17/27 47/18/28
f 22/19/29 21/15/30 47/18/31 23/20/32
f 21/15/33 22/19/34 2/21/35 1/16/36
f 5/3/37 22/19/38 23/20/39 24/22/40
f 22/19/41 5/3/42 3/2/43 2/21/44
f 5/3/45 24/22/46 25/23/47 6/4/48
f 6/4/49 25/23/50 26/24/51 7/5/52
f 7/5/53 26/24/54 27/25/55 9/7/56
f 9/7/57 27/25/58 28/26/59 11/9/60
f 11/9/61 28/26/62 29/27/63 30/28/64
f 30/28/65 13/29/66 12/10/67 11/9/68
f 31/30/69 30/28/70 29/27/71 57/31/72
f 30/28/73 31/30/74 32/32/75 13/29/76
f 32/32/77 31/30/78 33/33/79 34/34/80
f 35/35/81 34/34/82 33/33/83 36/36/84
f 35/35/85 36/36/86 37/37/87 38/38/88
f 38/38/89 37/37/90 39/39/91 40/40/92
f 40/40/93 39/39/94 41/41/95 14/42/96
f 41/41/97 39/39/98 61/43/99 62/44/100
f 42/45/101 41/41/102 62/44/103 63/46/104
f 41/41/105 42/45/106 15/47/107 14/42/108
f 43/48/109 42/45/110 63/46/111 44/49/112
f 42/45/113 43/48/114 16/50/115 15/47/116
f 19/51/117 43/48/118 44/49/119 45/52/120
f 43/48/121 19/51/122 17/53/123 16/50/124
f 19/13/125 45/54/126 46/17/127 20/14/128
f 46/17/129 45/54/130 66/55/131 67/56/132
f 47/18/133 46/17/134 67/56/135 48/57/136
f 23/20/137 47/18/138 48/57/139 49/58/140
f 23/20/141 49/58/142 50/59/143 24/22/144
f 24/22/145 50/59/146 51/60/147 25/23/148
f 25/23/149 51/60/150 52/61/151 26/24/152
f 26/24/153 52/61/154 53/62/155 27/25/156
f 27/25/157 53/62/158 54/63/159 28/26/160
f 28/26/161 54/63/162 55/64/163 29/27/164
f 29/27/165 55/64/166 56/65/167 57/31/168
f 58/66/169 57/31/170 56/65/171 68/67/172
f 31/30/173 57/31/174 58/66/175 33/33/176
f 33/33/177 58/66/178 59/68/179 36/36/180
f 36/36/181 59/68/182 60/69/183 37/37/184
f 37/37/185 60/69/186 61/43/187 39/39/188
f 61/43/189 60/69/190 70/70/191 71/71/192
f 62/44/193 61/43/194 71/71/195 72/72/196
f 63/46/197 62/44/198 72/72/199 64/73/200
f 44/49/201 63/46/202 64/73/203 65/74/204
f 44/49/205 65/74/206 66/75/207 45/52/208
f 58/66/209 68/67/210 69/76/211 59/68/212
f 59/68/213 69/76/214 70/70/215 60/69/216
s 1
f 50/77/217 69/78/218 68/79/219 51/80/220
f 67/81/221 66/82/222 65/83/223 64/84/224 72/85/225
f 67/81/221 72/85/225 71/86/226 48/87/227
f 48/87/227 71/86/226 70/88/228 49/89/229
f 49/89/229 70/88/228 69/78/218 50/77/217
f 51/80/220 68/79/219 56/90/230 52/91/231
f 52/91/231 56/90/230 55/92/232 54/93/233 53/94/234
