# This file uses centimeters as units for non-parametric coordinates.

mtllib Grass.mtl
g default
v 0.181689 0.000000 -0.108015
v -0.181689 0.000000 0.108015
v -0.000000 0.000000 -0.000000
v 0.298893 0.468794 0.089130
v 0.117204 0.468794 0.197145
v -0.064485 0.468794 0.305160
v 0.183464 0.181671 -0.105030
v 0.001775 0.181671 0.002985
v -0.179914 0.181671 0.111001
v 0.212922 0.328283 -0.055479
v 0.031233 0.328283 0.052536
v -0.150456 0.328283 0.160551
v 0.243553 0.394167 -0.003956
v 0.061864 0.394167 0.104059
v -0.119825 0.394167 0.212075
v -0.195497 0.025920 -0.160813
v 0.129238 0.025920 0.109854
v -0.033130 0.025920 -0.025479
v -0.048651 0.494715 -0.336992
v 0.113716 0.494715 -0.201659
v 0.276083 0.494715 -0.066325
v -0.193273 0.207591 -0.163481
v -0.030906 0.207591 -0.028147
v 0.131461 0.207591 0.107186
v -0.156365 0.354203 -0.207762
v 0.006002 0.354203 -0.072428
v 0.168370 0.354203 0.062905
v -0.117987 0.420088 -0.253806
v 0.044380 0.420088 -0.118472
v 0.206747 0.420088 0.016861
v 0.205729 0.000000 0.048515
v -0.205729 0.000000 -0.048515
v 0.000000 0.000000 -0.000000
v 0.153087 0.468794 0.271745
v -0.052642 0.468794 0.223230
v -0.258371 0.468794 0.174715
v 0.204932 0.181671 0.051895
v -0.000797 0.181671 0.003380
v -0.206526 0.181671 -0.045134
v 0.191701 0.328283 0.108002
v -0.014028 0.328283 0.059487
v -0.219758 0.328283 0.010972
v 0.177943 0.394167 0.166343
v -0.027786 0.394167 0.117828
v -0.233515 0.394167 0.069313
v -0.077028 0.000000 0.196837
v 0.077028 0.000000 -0.196837
v 0.000000 0.000000 -0.000000
v -0.290610 0.468794 0.113256
v -0.213582 0.468794 -0.083581
v -0.136553 0.468794 -0.280418
v -0.080263 0.181671 0.195572
v -0.003234 0.181671 -0.001266
v 0.073794 0.181671 -0.198103
v -0.133944 0.328283 0.174564
v -0.056916 0.328283 -0.022273
v 0.020112 0.328283 -0.219110
v -0.189763 0.394167 0.152721
v -0.112735 0.394167 -0.044117
v -0.035707 0.394167 -0.240954
vt 0.250863 0.028429
vt 0.500000 0.028429
vt 0.749137 0.028429
vt 0.250863 0.643565
vt 0.500000 0.643565
vt 0.749137 0.643565
vt 0.250863 0.212970
vt 0.500000 0.212970
vt 0.749137 0.212970
vt 0.250863 0.385208
vt 0.500000 0.385208
vt 0.749137 0.385208
vt 0.250863 0.488550
vt 0.500000 0.488550
vt 0.749137 0.488550
vt 0.500000 0.643565
vt 0.250863 0.643565
vt 0.250863 0.488550
vt 0.500000 0.488550
vt 0.749137 0.488550
vt 0.749137 0.643565
vt 0.500000 0.212970
vt 0.250863 0.212970
vt 0.250863 0.028429
vt 0.500000 0.028429
vt 0.749137 0.028429
vt 0.749137 0.212970
vt 0.500000 0.385208
vt 0.250863 0.385208
vt 0.749137 0.385208
vt 0.500000 0.643565
vt 0.250863 0.643565
vt 0.250863 0.488550
vt 0.500000 0.488550
vt 0.749137 0.488550
vt 0.749137 0.643565
vt 0.500000 0.212970
vt 0.250863 0.212970
vt 0.250863 0.028429
vt 0.500000 0.028429
vt 0.749137 0.028429
vt 0.749137 0.212970
vt 0.500000 0.385208
vt 0.250863 0.385208
vt 0.749137 0.385208
vt 0.500000 0.643565
vt 0.250863 0.643565
vt 0.250863 0.488550
vt 0.500000 0.488550
vt 0.749137 0.488550
vt 0.749137 0.643565
vt 0.500000 0.212970
vt 0.250863 0.212970
vt 0.250863 0.028429
vt 0.500000 0.028429
vt 0.749137 0.028429
vt 0.749137 0.212970
vt 0.500000 0.385208
vt 0.250863 0.385208
vt 0.749137 0.385208
vn -0.289970 0.823418 -0.487749
vn -0.289970 0.823418 -0.487749
vn -0.327582 0.767510 -0.551016
vn -0.327582 0.767510 -0.551015
vn -0.327582 0.767510 -0.551015
vn -0.289970 0.823418 -0.487749
vn -0.502387 0.183033 -0.845048
vn -0.502387 0.183033 -0.845048
vn -0.510926 0.019114 -0.859412
vn -0.510926 0.019114 -0.859412
vn -0.510926 0.019114 -0.859412
vn -0.502387 0.183033 -0.845048
vn -0.447128 0.484173 -0.752099
vn -0.447128 0.484173 -0.752099
vn -0.447128 0.484173 -0.752099
vn -0.363306 0.823418 0.435879
vn -0.363307 0.823418 0.435879
vn -0.410431 0.767510 0.492417
vn -0.410431 0.767510 0.492417
vn -0.410431 0.767510 0.492417
vn -0.363306 0.823418 0.435879
vn -0.629445 0.183033 0.755181
vn -0.629445 0.183033 0.755181
vn -0.640144 0.019114 0.768017
vn -0.640144 0.019114 0.768017
vn -0.640144 0.019114 0.768017
vn -0.629445 0.183033 0.755181
vn -0.560211 0.484173 0.672116
vn -0.560211 0.484173 0.672116
vn -0.560211 0.484173 0.672116
vn 0.130240 0.823418 -0.552286
vn 0.130240 0.823418 -0.552286
vn 0.147133 0.767510 -0.623923
vn 0.147133 0.767510 -0.623923
vn 0.147133 0.767510 -0.623923
vn 0.130240 0.823418 -0.552286
vn 0.225646 0.183033 -0.956861
vn 0.225646 0.183033 -0.956861
vn 0.229482 0.019114 -0.973125
vn 0.229482 0.019114 -0.973125
vn 0.229482 0.019114 -0.973125
vn 0.225646 0.183033 -0.956861
vn 0.200827 0.484173 -0.851613
vn 0.200827 0.484173 -0.851613
vn 0.200827 0.484173 -0.851613
vn 0.528415 0.823418 0.206784
vn 0.528415 0.823418 0.206785
vn 0.596956 0.767510 0.233607
vn 0.596956 0.767510 0.233606
vn 0.596956 0.767510 0.233606
vn 0.528415 0.823418 0.206784
vn 0.915503 0.183033 0.358263
vn 0.915503 0.183033 0.358264
vn 0.931065 0.019114 0.364353
vn 0.931065 0.019114 0.364353
vn 0.931065 0.019114 0.364353
vn 0.915503 0.183033 0.358263
vn 0.814805 0.484173 0.318857
vn 0.814805 0.484173 0.318857
vn 0.814805 0.484173 0.318857
s 1
g Grass_MB
usemtl lambert2SG
f 5/5/1 4/4/2 13/13/3 14/14/4
f 14/14/4 15/15/5 6/6/6 5/5/1
f 8/8/7 7/7/8 1/1/9 3/2/10
f 2/3/11 9/9/12 8/8/7 3/2/10
f 11/11/13 10/10/14 7/7/8 8/8/7
f 8/8/7 9/9/12 12/12/15 11/11/13
f 14/14/4 13/13/3 10/10/14 11/11/13
f 11/11/13 12/12/15 15/15/5 14/14/4
s 3
f 20/16/16 19/17/17 28/18/18 29/19/19
f 29/19/19 30/20/20 21/21/21 20/16/16
f 23/22/22 22/23/23 16/24/24 18/25/25
f 17/26/26 24/27/27 23/22/22 18/25/25
f 26/28/28 25/29/29 22/23/23 23/22/22
f 23/22/22 24/27/27 27/30/30 26/28/28
f 29/19/19 28/18/18 25/29/29 26/28/28
f 26/28/28 27/30/30 30/20/20 29/19/19
s 5
f 35/31/31 34/32/32 43/33/33 44/34/34
f 44/34/34 45/35/35 36/36/36 35/31/31
f 38/37/37 37/38/38 31/39/39 33/40/40
f 32/41/41 39/42/42 38/37/37 33/40/40
f 41/43/43 40/44/44 37/38/38 38/37/37
f 38/37/37 39/42/42 42/45/45 41/43/43
f 44/34/34 43/33/33 40/44/44 41/43/43
f 41/43/43 42/45/45 45/35/35 44/34/34
s 7
f 50/46/46 49/47/47 58/48/48 59/49/49
f 59/49/49 60/50/50 51/51/51 50/46/46
f 53/52/52 52/53/53 46/54/54 48/55/55
f 47/56/56 54/57/57 53/52/52 48/55/55
f 56/58/58 55/59/59 52/53/53 53/52/52
f 53/52/52 54/57/57 57/60/60 56/58/58
f 59/49/49 58/48/48 55/59/59 56/58/58
f 56/58/58 57/60/60 60/50/50 59/49/49
